<svg xmlns="http://www.w3.org/2000/svg" width="133" height="24" viewBox="0 0 133 24" fill="none"><path d="M25.87 0.773438H22.6562L28.5778 10.1534L31.7849 10.1551L25.87 0.773438Z" fill="#00B6F1"></path><path d="M28.5557 12.7969L21.916 23.2254H25.0407L31.6846 12.801L28.5557 12.7969Z" fill="#00B6F1"></path><path d="M0.5 23.2253H3.17952L5.74004 17.5384H16.3408L18.9021 23.2253H21.6416L11.0708 0L0.5 23.2253ZM6.78272 15.1559L11.0408 5.6869L15.2989 15.1559H6.78272Z" fill="#2A2A76"></path><path d="M45.2537 0.773438H42.5742V23.2256H45.2537V0.773438Z" fill="#2A2A76"></path><path d="M60.9149 0.416992C54.5132 0.416992 49.3613 5.59795 49.3613 12.0005C49.3613 18.4031 54.5123 23.584 60.9149 23.584C67.3166 23.584 72.4684 18.4031 72.4684 12.0005C72.4684 5.59795 67.3174 0.416992 60.9149 0.416992ZM60.9149 21.0235C55.9719 21.0235 52.1008 17.0633 52.1008 12.0005C52.1008 6.93854 55.9719 2.97835 60.9149 2.97835C65.8578 2.97835 69.729 6.93854 69.729 12.0005C69.7298 17.0625 65.8587 21.0235 60.9149 21.0235Z" fill="#2A2A76"></path><path d="M86.6635 18.1633L78.8621 0L74.4551 23.2253H77.0456L79.8449 8.2183L86.6044 24L93.364 8.2183L96.1625 23.2253H98.872L94.4658 0L86.6635 18.1633Z" fill="#2A2A76"></path><path d="M105.66 0.773438H102.98V23.2256H105.66V0.773438Z" fill="#2A2A76"></path><path d="M121.323 0.416992C114.921 0.416992 109.77 5.59795 109.77 12.0005C109.77 18.4031 114.921 23.584 121.323 23.584C127.726 23.584 132.877 18.4031 132.877 12.0005C132.877 5.59795 127.726 0.416992 121.323 0.416992ZM121.323 21.0235C116.38 21.0235 112.509 17.0633 112.509 12.0005C112.509 6.93854 116.379 2.97835 121.323 2.97835C126.267 2.97835 130.137 6.93854 130.137 12.0005C130.138 17.0625 126.266 21.0235 121.323 21.0235Z" fill="#2A2A76"></path><path d="M39.336 0.773438H36.2113L32.584 6.47033L34.1409 8.93349L39.336 0.773438Z" fill="#2A2A76"></path><path d="M32.5312 16.4136L36.8318 23.2248H40.0206L34.1306 13.8789L32.5312 16.4136Z" fill="#2A2A76"></path></svg>